<svg width="24" height="24" viewBox="0 0 24 24" fill="none" xmlns="http://www.w3.org/2000/svg">
<path d="M9.5 13C9.76522 13 10.0196 12.8946 10.2071 12.7071C10.3946 12.5196 10.5 12.2652 10.5 12C10.5 11.7348 10.3946 11.4804 10.2071 11.2929C10.0196 11.1054 9.76522 11 9.5 11C9.23478 11 8.98043 11.1054 8.79289 11.2929C8.60536 11.4804 8.5 11.7348 8.5 12C8.5 12.2652 8.60536 12.5196 8.79289 12.7071C8.98043 12.8946 9.23478 13 9.5 13ZM16.5 12C16.5 12.2652 16.3946 12.5196 16.2071 12.7071C16.0196 12.8946 15.7652 13 15.5 13C15.2348 13 14.9804 12.8946 14.7929 12.7071C14.6054 12.5196 14.5 12.2652 14.5 12C14.5 11.7348 14.6054 11.4804 14.7929 11.2929C14.9804 11.1054 15.2348 11 15.5 11C15.7652 11 16.0196 11.1054 16.2071 11.2929C16.3946 11.4804 16.5 11.7348 16.5 12Z" fill="currentColor"/>
<path fill-rule="evenodd" clip-rule="evenodd" d="M12 22C17.523 22 22 17.523 22 12C22 6.477 17.523 2 12 2C6.477 2 2 6.477 2 12C2 17.523 6.477 22 12 22ZM12 20C13.2563 20.0004 14.495 19.7049 15.6159 19.1375C16.7367 18.57 17.7082 17.7466 18.4516 16.7339C19.1949 15.7211 19.6894 14.5475 19.8948 13.3082C20.1002 12.0688 20.0109 10.7984 19.634 9.6C18.799 9.826 17.921 9.946 17.015 9.946C15.249 9.94624 13.5145 9.47883 11.9878 8.59128C10.4611 7.70374 9.19662 6.42773 8.323 4.893C6.72983 5.71636 5.45952 7.05114 4.71597 8.68308C3.97242 10.315 3.79877 12.1495 4.22288 13.8919C4.64699 15.6344 5.64428 17.1839 7.05464 18.2915C8.46501 19.3992 10.2067 20.0009 12 20Z" fill="currentColor"/>
<path d="M9.5 15C11.6867 16.2907 12.9901 16.3753 15.5 15" stroke="currentColor"/>
</svg>
