<svg width="50" height="50" viewBox="0 0 50 50" fill="none" xmlns="http://www.w3.org/2000/svg">
<path d="M38.5898 25.207L28.5156 21.4844L24.8047 11.4023C24.5849 10.8053 24.1873 10.2901 23.6656 9.92614C23.1438 9.5622 22.5229 9.36706 21.8867 9.36706C21.2505 9.36706 20.6297 9.5622 20.1079 9.92614C19.5861 10.2901 19.1885 10.8053 18.9688 11.4023L15.2344 21.4844L5.15235 25.1953C4.55534 25.4151 4.0401 25.8127 3.67615 26.3345C3.3122 26.8562 3.11707 27.4771 3.11707 28.1133C3.11707 28.7495 3.3122 29.3703 3.67615 29.8921C4.0401 30.4139 4.55534 30.8115 5.15235 31.0312L15.2344 34.7656L18.9453 44.8477C19.1651 45.4447 19.5627 45.9599 20.0845 46.3239C20.6062 46.6878 21.2271 46.8829 21.8633 46.8829C22.4995 46.8829 23.1203 46.6878 23.6421 46.3239C24.1639 45.9599 24.5615 45.4447 24.7813 44.8477L28.5156 34.7656L38.5977 31.0547C39.1947 30.8349 39.7099 30.4373 40.0739 29.9155C40.4378 29.3938 40.6329 28.7729 40.6329 28.1367C40.6329 27.5005 40.4378 26.8797 40.0739 26.3579C39.7099 25.8361 39.1947 25.4385 38.5977 25.2188L38.5898 25.207ZM26.7578 32.0742C26.5457 32.1524 26.3531 32.2756 26.1933 32.4355C26.0335 32.5953 25.9102 32.7879 25.832 33L21.875 43.7207L17.9258 33.0078C17.8477 32.7935 17.7237 32.5988 17.5624 32.4376C17.4012 32.2763 17.2065 32.1523 16.9922 32.0742L6.2793 28.125L16.9922 24.1758C17.2065 24.0977 17.4012 23.9737 17.5624 23.8124C17.7237 23.6512 17.8477 23.4565 17.9258 23.2422L21.875 12.5293L25.8242 23.2422C25.9024 23.4543 26.0256 23.6469 26.1855 23.8067C26.3453 23.9666 26.5379 24.0898 26.75 24.168L37.4707 28.125L26.7578 32.0742ZM28.125 7.8125C28.125 7.3981 28.2896 7.00067 28.5826 6.70765C28.8757 6.41462 29.2731 6.25 29.6875 6.25H32.8125V3.125C32.8125 2.7106 32.9771 2.31317 33.2701 2.02015C33.5632 1.72712 33.9606 1.5625 34.375 1.5625C34.7894 1.5625 35.1868 1.72712 35.4799 2.02015C35.7729 2.31317 35.9375 2.7106 35.9375 3.125V6.25H39.0625C39.4769 6.25 39.8743 6.41462 40.1674 6.70765C40.4604 7.00067 40.625 7.3981 40.625 7.8125C40.625 8.2269 40.4604 8.62433 40.1674 8.91735C39.8743 9.21038 39.4769 9.375 39.0625 9.375H35.9375V12.5C35.9375 12.9144 35.7729 13.3118 35.4799 13.6049C35.1868 13.8979 34.7894 14.0625 34.375 14.0625C33.9606 14.0625 33.5632 13.8979 33.2701 13.6049C32.9771 13.3118 32.8125 12.9144 32.8125 12.5V9.375H29.6875C29.2731 9.375 28.8757 9.21038 28.5826 8.91735C28.2896 8.62433 28.125 8.2269 28.125 7.8125ZM48.4375 17.1875C48.4375 17.6019 48.2729 17.9993 47.9799 18.2924C47.6868 18.5854 47.2894 18.75 46.875 18.75H45.3125V20.3125C45.3125 20.7269 45.1479 21.1243 44.8549 21.4174C44.5618 21.7104 44.1644 21.875 43.75 21.875C43.3356 21.875 42.9382 21.7104 42.6451 21.4174C42.3521 21.1243 42.1875 20.7269 42.1875 20.3125V18.75H40.625C40.2106 18.75 39.8132 18.5854 39.5201 18.2924C39.2271 17.9993 39.0625 17.6019 39.0625 17.1875C39.0625 16.7731 39.2271 16.3757 39.5201 16.0826C39.8132 15.7896 40.2106 15.625 40.625 15.625H42.1875V14.0625C42.1875 13.6481 42.3521 13.2507 42.6451 12.9576C42.9382 12.6646 43.3356 12.5 43.75 12.5C44.1644 12.5 44.5618 12.6646 44.8549 12.9576C45.1479 13.2507 45.3125 13.6481 45.3125 14.0625V15.625H46.875C47.2894 15.625 47.6868 15.7896 47.9799 16.0826C48.2729 16.3757 48.4375 16.7731 48.4375 17.1875Z" fill="#009C3C"/>
</svg>
