<svg width="40" height="40" viewBox="0 0 40 40" fill="none" xmlns="http://www.w3.org/2000/svg">
<path d="M36.875 16.25C36.8721 13.7645 35.8835 11.3816 34.1259 9.62407C32.3684 7.86654 29.9855 6.87789 27.5 6.875H21.9375C22.0816 6.16915 22.4651 5.53475 23.0232 5.07918C23.5813 4.62361 24.2796 4.37485 25 4.375C25.4973 4.375 25.9742 4.17746 26.3258 3.82582C26.6775 3.47419 26.875 2.99728 26.875 2.5C26.875 2.00272 26.6775 1.52581 26.3258 1.17417C25.9742 0.822544 25.4973 0.625 25 0.625C23.2857 0.627434 21.6339 1.26941 20.3679 2.42533C19.1019 3.58125 18.3127 5.16795 18.1547 6.875H12.5C10.0145 6.87789 7.6316 7.86654 5.87407 9.62407C4.11654 11.3816 3.12789 13.7645 3.125 16.25C3.125 16.7351 3.23795 17.2136 3.45491 17.6475C3.67188 18.0815 3.98689 18.4589 4.375 18.75V20C4.375 25.8516 9.6875 30.1109 13.9422 33.5328C15.5391 34.8141 17.9469 36.7484 18.125 37.5266C18.125 38.0238 18.3225 38.5008 18.6742 38.8524C19.0258 39.204 19.5027 39.4016 20 39.4016C20.4973 39.4016 20.9742 39.204 21.3258 38.8524C21.6775 38.5008 21.875 38.0238 21.875 37.5266C22.0531 36.7453 24.4609 34.8141 26.0578 33.5328C30.3203 30.1109 35.625 25.8516 35.625 20V18.75C36.0131 18.4589 36.3281 18.0815 36.5451 17.6475C36.762 17.2136 36.875 16.7351 36.875 16.25ZM12.5 10.625H27.5C28.8831 10.6269 30.2172 11.1376 31.2482 12.0596C32.2791 12.9816 32.9349 14.2507 33.0906 15.625H6.90938C7.0651 14.2507 7.72089 12.9816 8.75184 12.0596C9.7828 11.1376 11.1169 10.6269 12.5 10.625ZM23.7094 30.6094C22.2766 31.7594 20.9813 32.7969 20 33.8203C19.0188 32.8 17.7234 31.7594 16.2906 30.6094C12.6562 27.6875 8.125 24.0531 8.125 20V19.375H31.875V20C31.875 24.0531 27.3438 27.6875 23.7094 30.6094Z" fill="#5A5CFF"/>
</svg>
