<svg width="48" height="48" viewBox="0 0 48 48" fill="none" xmlns="http://www.w3.org/2000/svg">
<path d="M23.7498 24.2689V36.7232M23.7498 43.9882C30.7242 43.9882 33.2981 41.2192 33.2981 35.6854C26.3237 35.6854 23.7498 38.4544 23.7498 43.9882ZM23.7498 43.9882C16.7754 43.9882 14.2015 41.2192 14.2015 35.6854C21.1759 35.6854 23.7498 38.4544 23.7498 43.9882ZM23.7498 22.1932C24.8508 22.1932 25.9068 21.7558 26.6853 20.9773C27.4639 20.1988 27.9012 19.1428 27.9012 18.0418C27.9012 16.9408 27.4639 15.8848 26.6853 15.1063C25.9068 14.3278 24.8508 13.8904 23.7498 13.8904C22.6488 13.8904 21.5929 14.3278 20.8143 15.1063C20.0358 15.8848 19.5984 16.9408 19.5984 18.0418C19.5984 19.1428 20.0358 20.1988 20.8143 20.9773C21.5929 21.7558 22.6488 22.1932 23.7498 22.1932Z" stroke="#FF7373" stroke-width="3.11357" stroke-linecap="round" stroke-linejoin="round"/>
<path d="M22.2388 13.0392C22.2388 13.0392 19.5985 9.69526 19.5985 8.02431C19.5985 5.54799 21.5081 3.51379 23.7519 3.51379C25.9958 3.51379 27.9054 5.54799 27.9054 8.02431C27.9054 9.69526 25.2631 13.0434 25.2631 13.0434M25.7446 13.3485C25.7446 13.3485 28.7025 10.1997 30.0206 9.36315C31.9759 8.12602 34.5353 8.92517 35.6582 11.0569C36.7791 13.1887 36.1294 16.022 34.1741 17.2612C32.8581 18.0957 29.3294 18.2949 29.3294 18.2949M29.3294 18.9052C29.3294 18.9052 32.8581 19.1045 34.1762 19.9389C36.1294 21.1781 36.7791 24.0094 35.6582 26.1432C34.5373 28.277 31.9759 29.0741 30.0206 27.837C28.7025 27.0005 25.7446 23.8516 25.7446 23.8516M21.7593 23.8516C21.7593 23.8516 18.8014 27.0005 17.4833 27.837C15.528 29.0741 12.9686 28.275 11.8457 26.1432C10.7248 24.0114 11.3745 21.1781 13.3298 19.9389C14.6479 19.1045 18.1745 18.9052 18.1745 18.9052M18.1745 18.2949C18.1745 18.2949 14.6458 18.0957 13.3298 17.2612C11.3745 16.022 10.7248 13.1887 11.8457 11.0569C12.9666 8.92517 15.528 8.12602 17.4833 9.36315C18.8014 10.1997 21.7593 13.3485 21.7593 13.3485" stroke="#FF7373" stroke-width="3.11357" stroke-linecap="round" stroke-linejoin="round"/>
</svg>
