<svg width="44" height="46" viewBox="0 0 44 46" fill="none" xmlns="http://www.w3.org/2000/svg">
<path d="M34.0937 14.7967C34.1042 14.8317 34.1105 14.8679 34.1125 14.9045C34.1385 15.1618 34.1515 15.4201 34.1515 15.6795V15.692C34.1557 16.943 33.8468 18.1752 33.2531 19.2763C33.2609 19.2232 31.4015 21.542 30.5453 22.092C29.3578 22.8576 27.975 23.2685 26.5625 23.2764H25.925C27.6697 22.4624 29.2341 21.308 30.5265 19.881C30.6541 19.7265 30.7174 19.5289 30.7034 19.329C30.6895 19.1292 30.5992 18.9423 30.4513 18.8071C30.3035 18.6719 30.1093 18.5986 29.909 18.6025C29.7087 18.6064 29.5175 18.6871 29.375 18.8279C26.8387 21.5147 23.358 23.1113 19.6672 23.281H17.1875C15.8096 23.2782 14.4603 22.8878 13.2937 22.1545C12.4906 21.6513 10.5937 19.4013 10.6 19.4529C9.94468 18.3079 9.60096 17.0112 9.6031 15.692V15.6795C9.6031 15.4826 9.61039 15.2883 9.62497 15.0967C9.62706 15.0727 9.63122 15.0503 9.63747 15.0295C9.6448 15.0046 9.649 14.9789 9.64997 14.9529C9.68435 14.5581 9.74893 14.1691 9.84372 13.7857V13.767C10.2662 12.1414 11.2167 10.7023 12.546 9.67564C13.8753 8.649 15.5079 8.09304 17.1875 8.0951H26.5625C28.1629 8.09495 29.7222 8.60146 31.017 9.54205C32.3119 10.4826 33.2757 11.809 33.7703 13.331L33.7843 13.3513L33.7937 13.392L33.8109 13.4357L33.8281 13.4779C33.8427 13.5352 33.8547 13.5941 33.864 13.6545C33.8713 13.7066 33.8812 13.7581 33.8937 13.8092C33.9729 14.1071 34.0333 14.4092 34.075 14.7154C34.0791 14.7415 34.0849 14.768 34.0922 14.7951M18.4375 11.7342L18.3703 11.8279C18.3324 11.886 18.2985 11.9466 18.2687 12.0092C18.2416 12.0644 18.2125 12.118 18.1812 12.1701C20.0676 13.8416 21.3733 16.0699 21.9093 18.5326C22.4385 16.155 23.686 13.9976 25.4828 12.3529L25.4203 12.2451C25.3161 12.062 25.2045 11.8832 25.0859 11.7092C24.714 11.1701 24.2163 10.7299 23.636 10.4265C23.0556 10.1232 22.41 9.96599 21.7551 9.96846C21.1002 9.97092 20.4558 10.133 19.8777 10.4407C19.2996 10.7484 18.8053 11.1923 18.4375 11.7342ZM17.1875 21.7139H19.5843V21.7185C19.8656 21.7076 20.1422 21.6763 20.4218 21.6467L20.4859 21.6388C20.6293 21.017 20.6485 20.3728 20.5422 19.7435L20.4687 19.3092C20.0643 16.9093 18.8267 14.7288 16.9734 13.1513C16.5807 12.8166 16.1216 12.5688 15.6263 12.4242C15.1311 12.2796 14.6108 12.2415 14.0997 12.3123C13.5886 12.3832 13.0983 12.5614 12.661 12.8353C12.2237 13.1091 11.8493 13.4725 11.5625 13.9013C11.2657 14.7931 11.1848 15.7426 11.3265 16.6717C11.4683 17.6008 11.8285 18.4829 12.3777 19.2457C12.9268 20.0084 13.6492 20.6298 14.4854 21.0589C15.3215 21.488 16.2476 21.7125 17.1875 21.7139ZM30.775 17.1701C31.3049 17.3712 31.744 17.7576 32.0109 18.2576L32.0125 18.2748C32.6477 16.9357 32.7592 15.4075 32.325 13.9904C31.9303 13.3682 31.3546 12.8817 30.6753 12.5962C29.996 12.3107 29.2456 12.24 28.525 12.3935C28.3916 12.4248 28.2604 12.4638 28.1312 12.5107C27.8117 12.6142 27.5082 12.762 27.2297 12.9498C27.0988 13.0245 26.9734 13.1086 26.8547 13.2013L26.8203 13.2295L26.7719 13.2717C24.9477 14.8507 23.732 17.017 23.3343 19.3967L23.2734 19.7717C23.2057 20.1849 23.1936 20.6053 23.2375 21.0217C25.1295 20.3583 26.8343 19.2495 28.2078 17.7888C28.5227 17.4379 28.9368 17.1908 29.3952 17.0803C29.8536 16.9698 30.3347 17.0011 30.775 17.1701Z" fill="#FF5AFA"/>
<path d="M41.0641 12.4248L43.75 11.3498L43.7625 19.1544L42.1875 19.7794V20.1091C42.1862 23.127 41.3525 26.086 39.7781 28.6607H43.75V36.6513H32.1391C32.1005 36.6513 32.0626 36.6607 32.0286 36.6788C31.9946 36.6969 31.9656 36.7231 31.9441 36.755C31.9226 36.787 31.9094 36.8238 31.9055 36.8621C31.9016 36.9004 31.9072 36.9391 31.9219 36.9748C31.9416 37.0228 31.9768 37.0629 32.0219 37.0888L34.7203 38.6513C35.2507 38.9576 35.6378 39.462 35.7963 40.0536C35.9549 40.6452 35.8719 41.2756 35.5656 41.806C35.2594 42.3364 34.755 42.7235 34.1633 42.882C33.5717 43.0406 32.9414 42.9576 32.4109 42.6513L29.9016 41.2029C29.7381 42.4968 29.1083 43.6868 28.1303 44.5497C27.1524 45.4126 25.8933 45.8893 24.5891 45.8904H20.9141C20.7545 45.8904 20.6015 45.827 20.4887 45.7142C20.3759 45.6014 20.3125 45.4484 20.3125 45.2888V44.9857C20.3129 43.5648 20.8775 42.2023 21.8822 41.1976C22.8869 40.1929 24.2495 39.6283 25.6703 39.6279H27.1766L23.8422 37.7029C22.6546 37.0171 21.3073 36.6561 19.9359 36.656H0V28.8435L3.33281 27.5154C2.18356 25.2417 1.57959 22.7317 1.56875 20.1841C1.5561 20.0491 1.54933 19.9135 1.54844 19.7779C1.49259 16.4988 2.22549 13.2542 3.68542 10.3175C5.14535 7.3808 7.28956 4.83787 9.9375 2.90289C10.5658 2.45234 11.3142 2.19922 12.087 2.17584C12.8599 2.15246 13.6221 2.35989 14.2766 2.77164C14.7109 3.04351 15.0891 3.3982 15.3859 3.81539L15.4313 3.87945C15.5726 2.95769 16.0391 2.11691 16.7463 1.5091C17.4536 0.901286 18.355 0.566548 19.2875 0.565389C22.2875 0.538827 25.2719 0.999764 28.125 1.92945C28.1833 1.83258 28.2453 1.73726 28.3109 1.64351C28.6082 1.22524 28.9849 0.869618 29.4196 0.59698C29.8543 0.324342 30.3385 0.140026 30.8445 0.0545611C31.3505 -0.0309037 31.8683 -0.015842 32.3685 0.0988857C32.8686 0.213613 33.3412 0.425759 33.7594 0.723202C36.3336 2.79713 38.347 5.48311 39.6156 8.5357C40.1948 9.79612 40.6776 11.0925 41.0641 12.4248ZM39.0625 20.181V20.1091L39.0766 20.0529L39.0719 19.8185L39.0672 19.5841V19.5435C39.0151 17.7227 38.7641 15.913 38.3187 14.1466C38.264 13.962 38.2119 13.7765 38.1625 13.5904C37.8048 12.303 37.3445 11.0464 36.7859 9.83258C36.7641 9.77737 36.7411 9.72528 36.7172 9.67633L36.6937 9.62789L36.6 9.42789L36.4016 9.0232C35.6689 7.51857 34.7474 6.11349 33.6594 4.84195C33.1498 4.26041 32.5799 3.73456 31.9594 3.2732C31.8748 3.21261 31.779 3.16952 31.6776 3.14644C31.5762 3.12337 31.4712 3.12078 31.3687 3.13883C31.2668 3.15582 31.1693 3.19287 31.0818 3.24783C30.9942 3.30278 30.9185 3.37456 30.8589 3.45899C30.7993 3.54342 30.7571 3.63884 30.7346 3.73971C30.7122 3.84058 30.71 3.94491 30.7281 4.04664C30.7626 4.25075 30.8767 4.43282 31.0453 4.55289C31.6141 4.97268 32.125 5.45393 32.5781 5.99664C33.1198 6.63518 33.6099 7.31226 34.0484 8.02789C34.463 8.69976 34.8396 9.39195 35.1781 10.1045C34.0185 8.80588 32.6732 7.68595 31.1859 6.78101C30.7953 6.54143 30.3844 6.30966 29.9531 6.0857C29.7385 5.97843 29.5223 5.87425 29.3047 5.7732L29.1484 5.6982L28.8234 5.55289C28.4825 5.40439 28.1376 5.26527 27.7891 5.1357L27.4688 5.01851C26.9333 4.83101 26.3734 4.65914 25.7891 4.50289C24.3923 4.13884 22.9658 3.90039 21.5266 3.79039C20.7817 3.73149 20.0347 3.7023 19.2875 3.70289C19.0803 3.70289 18.8816 3.7852 18.7351 3.93171C18.5886 4.07822 18.5063 4.27694 18.5063 4.48414C18.5063 4.69134 18.5886 4.89005 18.7351 5.03657C18.8816 5.18308 19.0803 5.26539 19.2875 5.26539C20.0437 5.26539 20.7693 5.29351 21.4641 5.34976C22.9275 5.46384 24.3762 5.72186 25.7891 6.12008L26.1406 6.22789C26.2844 6.26956 26.4276 6.31331 26.5703 6.35914C27.2266 6.57581 27.8703 6.82789 28.5016 7.11539C27.8626 6.97976 27.2145 6.89202 26.5625 6.85289C26.3 6.82789 26.0422 6.82789 25.7812 6.82789H17.9688C17.3982 6.82536 16.8281 6.86191 16.2625 6.93726L16.0078 6.97164C13.5376 7.34023 11.2214 8.39789 9.325 10.0232C9.83071 9.3352 10.392 8.68981 11.0031 8.09351C11.518 7.59151 12.0707 7.12973 12.6563 6.71226C12.7604 6.63752 12.8446 6.53829 12.9014 6.42331C12.9582 6.30834 12.9858 6.18116 12.9817 6.05299C12.9777 5.92483 12.9422 5.79963 12.8784 5.68843C12.8145 5.57723 12.7243 5.48346 12.6156 5.41539C12.4838 5.33362 12.3307 5.29293 12.1757 5.2985C12.0207 5.30406 11.8709 5.35563 11.7453 5.44664C11.1297 5.88726 10.5479 6.3706 10 6.89664C9.29323 7.57352 8.64557 8.30953 8.06406 9.09664L7.96875 9.24195C5.77802 12.313 4.62367 16.0027 4.67344 19.7748C4.66957 19.8345 4.67431 19.8945 4.6875 19.9529V20.1091C4.69081 23.6294 6.09155 27.0043 8.58191 29.4923C11.0723 31.9803 14.4485 33.3779 17.9688 33.3779H25.7812C27.7159 33.3807 29.6276 32.9599 31.3822 32.145C33.1368 31.33 34.6916 30.1407 35.9375 28.6607H35.9469C37.9444 26.285 39.0467 23.2848 39.0625 20.181Z" fill="#FF5AFA"/>
</svg>
