<svg width="36" height="36" viewBox="0 0 36 36" fill="none" xmlns="http://www.w3.org/2000/svg">
<path d="M34.0417 12.5288H19.7083V8.24672C21.1058 8.06755 22.8796 7.60172 24.2412 6.41922C26.8571 4.12588 26.875 0.0229656 26.875 0.0229656C26.875 0.0229656 22.6646 -0.353285 20.0487 1.94005C18.6333 3.1763 17.9883 4.93213 17.6838 6.2938C17.4688 5.27255 17.0387 4.07213 16.125 3.1763C14.1542 1.27713 10.75 1.49213 10.75 1.49213C10.75 1.49213 10.535 4.80672 12.4879 6.70588C13.5271 7.72713 14.9783 8.1213 16.1071 8.30046V12.5646H1.79167C0.80625 12.5646 0 13.3709 0 14.3563V21.523C0 22.5084 0.80625 23.3146 1.79167 23.3146H4.03125L7.23833 34.5484C7.45333 35.3188 8.17 35.8563 8.95833 35.8563H26.875C27.6812 35.8563 28.38 35.3188 28.595 34.5484L31.8021 23.3146H34.0417C35.0271 23.3146 35.8333 22.5084 35.8333 21.523V14.3563C35.8333 13.3709 35.0271 12.5646 34.0417 12.5646V12.5288ZM25.5312 32.2371H10.3021L7.74 23.2788H28.0754L25.5133 32.2371H25.5312ZM32.25 19.6955H3.58333V16.1121H32.25V19.6955Z" fill="#FFB050"/>
</svg>
