<svg width="47" height="47" viewBox="0 0 47 47" fill="none" xmlns="http://www.w3.org/2000/svg">
<path d="M29.0078 16.5234C29.2999 16.5234 29.5801 16.4074 29.7867 16.2008C29.9933 15.9942 30.1093 15.714 30.1093 15.4219C30.1093 15.1297 29.9933 14.8495 29.7867 14.643C29.5801 14.4364 29.2999 14.3203 29.0078 14.3203C28.7156 14.3203 28.4354 14.4364 28.2288 14.643C28.0223 14.8495 27.9062 15.1297 27.9062 15.4219C27.9062 15.714 28.0223 15.9942 28.2288 16.2008C28.4354 16.4074 28.7156 16.5234 29.0078 16.5234ZM19.0643 15.4219C19.0643 15.5665 19.0358 15.7098 18.9805 15.8434C18.9251 15.9771 18.844 16.0985 18.7417 16.2008C18.6394 16.3031 18.518 16.3842 18.3843 16.4396C18.2507 16.4949 18.1074 16.5234 17.9628 16.5234C17.8181 16.5234 17.6749 16.4949 17.5412 16.4396C17.4076 16.3842 17.2861 16.3031 17.1838 16.2008C17.0816 16.0985 17.0004 15.9771 16.9451 15.8434C16.8897 15.7098 16.8612 15.5665 16.8612 15.4219C16.8612 15.1297 16.9773 14.8495 17.1838 14.643C17.3904 14.4364 17.6706 14.3203 17.9628 14.3203C18.2549 14.3203 18.5351 14.4364 18.7417 14.643C18.9483 14.8495 19.0643 15.1297 19.0643 15.4219ZM23.4853 14.6875C21.8696 14.6875 20.5478 16.0094 20.5478 17.625H26.4228C26.4228 16.0094 25.1009 14.6875 23.4853 14.6875Z" fill="#009C3C"/>
<path d="M22.3925 5.92488C23.1189 5.85707 23.8501 5.85707 24.5765 5.92488C30.4956 6.47566 35.1486 11.4033 35.2338 17.4546L44.6661 26.8869C46.1672 28.3879 45.656 30.995 43.588 31.7191C42.3657 32.1538 41.0753 32.3662 39.7781 32.3462C38.8704 32.3361 37.9673 32.2152 37.0888 31.9864C36.2952 33.9252 35.0973 35.6725 33.5748 37.1116C32.0524 38.5507 30.2405 39.6485 28.2602 40.3318L28.2734 41.8593H30.1387C31.2109 41.8593 32.1068 42.6231 32.2978 43.6365C32.3418 43.8568 32.1656 44.0624 31.9306 44.0624H15.0399C14.8049 44.0624 14.6287 43.8568 14.6728 43.6365C14.8784 42.6231 15.7596 41.8593 16.8318 41.8593H18.7265L18.7118 40.3318C16.7334 39.6492 14.9231 38.553 13.4015 37.116C11.88 35.679 10.6821 33.9343 9.88757 31.9981C9.02339 32.2194 8.13581 32.3362 7.24382 32.3462C5.94609 32.3664 4.65524 32.154 3.43241 31.7191C1.36441 30.995 0.853286 28.3879 2.35435 26.8869L11.7353 17.5074C11.7969 11.4488 16.4558 6.47566 22.3925 5.92488ZM37.9201 29.1693C38.5282 29.3221 39.1583 29.4024 39.8104 29.4102H39.8134C40.7915 29.4234 41.7271 29.2633 42.5834 28.9608L38.0332 24.4091C38.2545 25.9909 38.2163 27.5983 37.9201 29.1678M20.9208 40.9032L20.9296 41.8593H26.0703L26.0614 40.9002C24.3613 41.2029 22.6211 41.2034 20.9208 40.9017M8.79775 26.4374C8.79775 25.7687 8.84182 25.1117 8.92994 24.4664L4.43557 28.9593C5.32609 29.2697 6.2641 29.4218 7.2071 29.4087H7.21004C7.8312 29.4017 8.44957 29.3244 9.05332 29.1781C8.88252 28.2746 8.79696 27.357 8.79775 26.4374ZM23.4853 8.81244C23.2062 8.81244 22.9286 8.82566 22.6701 8.85063H22.6657C20.4811 9.05802 18.4521 10.0717 16.9744 11.6939C15.4966 13.3161 14.6761 15.4306 14.6728 17.6249C14.6728 18.2683 14.4671 18.8748 14.0999 19.3801L14.0926 19.3933L14.0838 19.4051C12.5558 21.4308 11.7312 23.9001 11.7353 26.4374C11.7353 29.5537 12.9732 32.5424 15.1768 34.7459C17.3803 36.9495 20.369 38.1874 23.4853 38.1874C26.6015 38.1874 29.5902 36.9495 31.7938 34.7459C33.9973 32.5424 35.2353 29.5537 35.2353 26.4374C35.2393 23.9001 34.4147 21.4308 32.8867 19.4051L32.8779 19.3933L32.8691 19.3801C32.4987 18.8697 32.2988 18.2555 32.2978 17.6249C32.2978 15.4296 31.4783 13.3133 30 11.6904C28.5216 10.0675 26.4906 9.05479 24.3048 8.85063H24.3004C24.0294 8.82532 23.7574 8.81258 23.4853 8.81244Z" fill="#009C3C"/>
</svg>
