<svg width="43" height="43" viewBox="0 0 43 43" fill="none" xmlns="http://www.w3.org/2000/svg">
<path d="M9.97463 15.3376C8.93658 15.3376 8.09607 16.4422 8.09607 17.4749C8.09607 18.5076 8.93591 18.9584 9.97463 18.9584C11.0107 18.9584 11.8552 18.5076 11.8552 17.4749C11.8552 16.4422 11.0107 15.3376 9.97463 15.3376Z" fill="#FFB050"/>
<path d="M41.6562 22.057C41.6562 21.6021 41.5541 21.2279 41.3519 20.9437C41.1067 20.599 40.727 20.4095 40.2836 20.4095C31.2408 20.4095 29.7647 17.6522 28.2006 14.7329C27.2754 13.0048 26.32 11.221 23.9644 9.91687C25.1416 7.34225 26.3818 5.8218 26.3946 5.80634L27.4051 4.5795L25.8383 4.73336C25.71 4.74612 22.8464 5.0478 19.9184 7.08358C17.6649 3.01941 13.6747 1.79256 13.4973 1.73948L12.1663 1.34375L12.726 2.63308C12.7354 2.65458 13.5497 4.55934 13.8487 7.56733C13.6529 7.47954 13.45 7.39891 13.24 7.32545C10.9831 6.52928 8.88017 6.12616 6.98952 6.12616C4.68095 6.12616 3.4998 6.74495 3.45075 6.77116L2.408 7.33016L3.43328 7.92073C3.45613 7.93417 5.63703 9.19931 8.73236 11.6973C7.39734 13.0686 6.36467 14.8169 5.66592 16.764C5.60747 16.7606 5.55506 16.7512 5.49392 16.7512C3.25927 16.7512 1.34375 19.7269 1.34375 22.1638V23.4511L2.56656 23.1112L2.59411 23.1031C2.99656 23.6594 3.79341 24.1163 4.7515 24.1505C5.23727 28.1542 7.55725 31.2758 11.3265 33.2316L9.28263 35.9178C9.06325 35.8137 8.83615 35.7268 8.60336 35.6577C8.3134 35.2413 7.95411 34.8777 7.54112 34.5827C6.39894 33.7705 5.0693 33.6421 4.86706 33.9068C4.66348 34.1729 13.6774 40.5873 13.8809 40.3226C14.0818 40.0572 13.5631 38.8686 12.4223 38.0563C12.0033 37.7602 11.5375 37.5367 11.0443 37.3952C10.9074 37.2001 10.7546 37.0167 10.5874 36.847L12.8187 33.9115C15.4592 34.9718 18.6714 35.5415 22.3566 35.5415C22.618 35.5415 22.874 35.5308 23.1306 35.522V40.4979C22.8905 40.5395 22.654 40.5997 22.4232 40.678C21.9358 40.5085 21.4235 40.4215 20.9074 40.4207C19.4891 40.4207 18.3395 41.0805 18.3395 41.4103C18.3395 41.7402 29.5397 41.7396 29.5397 41.4103C29.5397 41.0811 28.3901 40.4207 26.9718 40.4207C26.4557 40.4215 25.9434 40.5085 25.456 40.678C25.2261 40.5999 24.9904 40.5397 24.7512 40.4979V35.4165C35.8546 34.2616 41.6562 25.2961 41.6562 22.057ZM2.31125 22.1638C2.31125 20.0649 3.98959 17.7335 5.49459 17.7335C7.00094 17.7335 6.84439 18.8058 6.84439 20.904L2.31125 22.1638ZM6.02672 23.9355C6.99288 23.5721 7.32881 22.8397 7.4222 21.764L7.81256 21.6552V20.9047C7.81256 20.7188 7.81346 20.5408 7.81525 20.3706C7.82466 19.0174 7.83138 18.0385 7.1595 17.3518C7.07748 17.271 6.98794 17.1981 6.89209 17.1342C7.61302 15.1615 8.71691 13.4294 10.1406 12.1475L10.709 11.6362L10.1205 11.1484C8.08333 9.46403 6.39692 8.2775 5.32595 7.57002C5.87589 7.47823 6.43265 7.4335 6.99019 7.43631C8.73639 7.43631 10.6969 7.81525 12.818 8.56372C13.3401 8.74781 13.8124 8.98163 14.2222 9.25911L15.2838 9.97936L15.2247 8.68331C15.1226 6.45941 14.7302 4.68431 14.4003 3.54011C15.7535 4.23953 17.8712 5.69212 19.1075 8.34133L19.4501 9.07569L20.0837 8.57984C21.6445 7.35905 23.2664 6.71203 24.4106 6.37744C23.6879 7.51855 23.0594 8.71666 22.5313 9.95988L22.2821 10.5437L22.8505 10.8138C25.243 11.952 26.1285 13.6075 27.0678 15.3604C28.7395 18.4826 30.4682 21.7123 40.2655 21.7123H40.3065C40.4045 21.8319 40.4664 22.6167 39.7918 24.082C39.1488 25.4782 37.8534 27.3708 35.8929 29.1419C35.1579 29.2877 34.3301 29.4886 33.4076 29.7117C31.6769 30.1316 29.6888 30.6079 27.5234 30.9257C27.4327 30.9412 27.3446 30.9533 27.2546 30.9681C29.7923 30.2001 30.9526 28.808 31.5573 28.0367C33.11 27.0537 33.9599 25.7496 33.9969 25.6918L35.1572 23.8858L33.5078 24.2661C33.6116 24.023 33.6895 23.7697 33.7402 23.5103L34.1339 21.2622L32.34 22.6731C32.3172 22.6912 32.2932 22.7078 32.2681 22.7228C32.2646 22.5408 32.2425 22.3595 32.2023 22.182L31.777 20.4693L30.6718 21.846C30.6521 21.872 30.6305 21.8964 30.6073 21.9193C28.7992 20.5002 25.976 19.6685 22.8726 19.6685C17.0146 19.6685 16.2627 22.7483 16.2627 25.4318C16.2627 27.4683 17.5474 30.3278 20.904 31.2254C19.5616 31.126 18.7218 30.9667 18.7218 30.9667C16.4542 30.6503 14.3781 30.1477 12.5782 29.7137C10.6445 29.2454 9.12809 28.8873 8.05242 28.9108C6.9445 27.4931 6.25314 25.8228 6.02672 23.9355ZM31.2382 23.8213C31.3772 23.8213 32.3118 23.8045 32.8795 23.3584C32.8795 23.3584 32.6813 24.4912 31.771 25.1315C32.2497 25.2995 32.766 25.33 33.2612 25.2195C33.2612 25.2195 32.4516 26.4779 30.9647 27.3755C30.2156 28.3323 28.4962 30.6402 23.1636 30.6402C18.5256 30.6402 17.1362 27.256 17.1362 25.4318C17.1362 22.7309 17.9995 20.5419 22.8726 20.5419C26.1729 20.5419 29.0458 21.5484 30.5575 23.0359C30.8767 22.8511 31.1548 22.6408 31.3544 22.3916C31.3544 22.3916 31.5103 23.0238 31.222 23.822C31.222 23.822 31.2265 23.8213 31.2382 23.8213ZM22.3553 34.23C16.1519 34.23 11.3937 32.5463 8.63427 29.586C9.61184 29.6727 10.9287 29.9878 12.4283 30.3513C15.3409 31.0561 18.9664 31.9329 22.9916 31.9329C27.0148 31.9329 30.6422 31.0547 33.5568 30.3493C34.0002 30.2418 34.4148 30.1417 34.8139 30.0489C31.8771 32.3434 27.7384 34.23 22.3553 34.23Z" fill="#FFB050"/>
</svg>
