<svg width="42" height="42" viewBox="0 0 42 42" fill="none" xmlns="http://www.w3.org/2000/svg">
<path d="M12.4688 16.8394C12.9911 16.8394 13.492 16.632 13.8613 16.2626C14.2307 15.8933 14.4382 15.3924 14.4382 14.87C14.4382 14.3477 14.2307 13.8468 13.8613 13.4775C13.492 13.1081 12.9911 12.9006 12.4688 12.9006C11.9466 12.9006 11.4458 13.1081 11.0766 13.4773C10.7074 13.8465 10.5 14.3472 10.5 14.8694C10.5 15.3915 10.7074 15.8923 11.0766 16.2615C11.4458 16.6307 11.9466 16.8394 12.4688 16.8394Z" fill="#5A5CFF"/>
<path d="M3.93754 18.3619L2.27067 17.0888C1.97613 16.8716 1.73623 16.5888 1.56999 16.2628C1.40375 15.9368 1.31574 15.5765 1.31294 15.2106C1.31013 14.8446 1.39262 14.4831 1.55384 14.1546C1.71507 13.826 1.95061 13.5396 2.24179 13.3179L4.57148 11.3558C5.33996 9.18621 6.76177 7.30806 8.64134 5.97964C10.5209 4.65122 12.7659 3.9378 15.0675 3.93751C17.5135 3.93437 19.8922 4.73801 21.8351 6.2239C23.778 7.7098 25.1767 9.79499 25.8143 12.1564L38.4353 15.4639C39.0797 15.6319 39.6503 16.0087 40.0578 16.5354C40.4653 17.0621 40.6867 17.7091 40.6875 18.375C40.6875 27.6806 33.772 35.3693 24.7997 36.5833L24.6357 37.4063H26.9719C27.93 37.4063 28.7307 38.0888 28.9144 38.9944C28.9538 39.1913 28.7963 39.375 28.5863 39.375H12.1407C11.9307 39.375 11.7732 39.1913 11.8257 38.9944C12.0094 38.0888 12.7969 37.4063 13.755 37.4063H16.1175L16.4404 35.7919C9.17179 33.3428 3.93754 26.4705 3.93754 18.375V18.3619ZM20.37 37.4063H22.6669L22.7995 36.7434C22.6376 36.7478 22.4753 36.75 22.3125 36.75C20.9648 36.7513 19.621 36.6043 18.3055 36.3116L18.0863 37.4063H20.37ZM15.0675 6.56251C12.8119 6.56251 10.6486 7.45857 9.0536 9.05357C7.4586 10.6486 6.56254 12.8118 6.56254 15.0675V18.375C6.56254 27.0743 13.6133 34.125 22.3125 34.125C25.2086 34.1299 28.0494 33.3321 30.5196 31.8203C29.6668 32.0287 28.7934 32.1414 27.9156 32.1563H27.9038C23.5292 32.1563 18.8397 29.9906 16.3879 26.3169C16.3401 26.2452 16.3069 26.1648 16.2901 26.0803C16.2734 25.9957 16.2734 25.9087 16.2903 25.8242C16.3072 25.7397 16.3405 25.6593 16.3885 25.5877C16.4364 25.516 16.498 25.4546 16.5697 25.4067C16.6414 25.3589 16.7218 25.3257 16.8064 25.3089C16.8909 25.2922 16.9779 25.2922 17.0625 25.3091C17.147 25.326 17.2273 25.3593 17.299 25.4073C17.3706 25.4552 17.4321 25.5168 17.4799 25.5885C19.6521 28.8435 23.898 30.8424 27.8972 30.8438C30.2676 30.797 32.555 29.9631 34.3994 28.4734C36.771 25.6434 38.0682 22.0674 38.0625 18.375C38.0618 18.2892 38.0325 18.2061 37.9792 18.1389C37.926 18.0716 37.8519 18.024 37.7685 18.0036L25.0898 14.6803C24.6611 14.5626 24.2703 14.3358 23.9554 14.022C23.6405 13.7083 23.4123 13.3183 23.293 12.8901L23.2904 12.8809L23.2877 12.8717C22.806 11.0603 21.7384 9.45919 20.2515 8.31796C18.7646 7.17672 16.9419 6.5595 15.0675 6.56251Z" fill="#5A5CFF"/>
</svg>
