<svg width="41" height="41" viewBox="0 0 41 41" fill="none" xmlns="http://www.w3.org/2000/svg">
<path d="M15.7722 10.3141C15.7722 10.6539 15.6372 10.9798 15.3969 11.2201C15.1566 11.4603 14.8307 11.5953 14.4909 11.5953C14.1511 11.5953 13.8252 11.4603 13.585 11.2201C13.3447 10.9798 13.2097 10.6539 13.2097 10.3141C13.2097 9.97428 13.3447 9.64839 13.585 9.40811C13.8252 9.16782 14.1511 9.03284 14.4909 9.03284C14.8307 9.03284 15.1566 9.16782 15.3969 9.40811C15.6372 9.64839 15.7722 9.97428 15.7722 10.3141ZM26.5731 11.5953C26.9129 11.5953 27.2388 11.4603 27.4791 11.2201C27.7194 10.9798 27.8544 10.6539 27.8544 10.3141C27.8544 9.97428 27.7194 9.64839 27.4791 9.40811C27.2388 9.16782 26.9129 9.03284 26.5731 9.03284C26.2333 9.03284 25.9074 9.16782 25.6671 9.40811C25.4269 9.64839 25.2919 9.97428 25.2919 10.3141C25.2919 10.6539 25.4269 10.9798 25.6671 11.2201C25.9074 11.4603 26.2333 11.5953 26.5731 11.5953ZM17.6223 12.1719H23.3777C23.3743 11.4091 23.0687 10.6788 22.5279 10.1408C21.9871 9.60288 21.2551 9.30121 20.4923 9.3019C19.7311 9.3019 19.0011 9.60427 18.4629 10.1425C17.9247 10.6807 17.6223 11.4107 17.6223 12.1719Z" fill="#66B2FF"/>
<path d="M2.10381 16.5371L5.27875 19.712L3.26975 21.721C3.02992 21.9615 2.89536 22.2873 2.89563 22.6269C2.89563 32.3669 10.7843 40.2569 20.5256 40.2569C30.1991 40.2569 38.0544 32.4541 38.1543 22.8024C38.1837 22.6045 38.1664 22.4024 38.1036 22.2124C38.0409 22.0224 37.9345 21.8497 37.793 21.7082L35.7904 19.7056L38.959 16.5371C40.7745 14.7203 39.4932 11.5953 36.9128 11.5953H32.0377C31.4034 5.79254 26.5001 1.28125 20.5384 1.28125C17.6866 1.27913 14.9346 2.33107 12.8113 4.2349C10.688 6.13873 9.34319 8.76013 9.03537 11.5953H4.15125C1.56953 11.5953 0.288281 14.7216 2.10381 16.5371ZM8.96875 14.1578V16.6127L8.67406 16.318L7.09172 17.9003L3.91678 14.7254C3.86777 14.6807 3.83451 14.6214 3.82197 14.5563C3.81395 14.4911 3.82277 14.4249 3.84759 14.3641C3.87275 14.3038 3.91288 14.2508 3.96419 14.2103C4.01923 14.1731 4.08486 14.1546 4.15125 14.1578H8.96875ZM5.46581 23.1483L7.92325 20.6922L8.72531 20.0029L8.96875 20.2463V20.3014L12.9611 24.3912L13.0431 24.3117L13.0944 24.363L16.4333 21.0228L20.532 17.0458L27.1535 23.5596L27.9569 24.3617L27.9633 24.3553L28.0209 24.4117L29.6276 22.7114L32.3375 20.0029L33.2292 20.7691L35.5842 23.124C35.3164 31.2113 28.6744 37.6944 20.5256 37.6944C12.3743 37.6944 5.74 31.2318 5.46581 23.1483ZM37.146 14.7254L33.9788 17.8939L32.39 16.3052L32.1081 16.5871V14.1578H36.9128C37.0025 14.1578 37.0589 14.1834 37.0986 14.2103C37.1434 14.2437 37.1883 14.2949 37.2165 14.3641C37.2409 14.425 37.2492 14.4912 37.2408 14.5563C37.2286 14.6212 37.1945 14.6806 37.146 14.7254ZM29.5341 19.0817L28.1632 20.5333L27.9582 20.7383L20.5269 13.3071L14.6357 19.197L13.0726 20.7153L11.5312 19.1752V12.824C11.536 10.4391 12.4874 8.15363 14.1763 6.46976C15.8652 4.78588 18.1535 3.84137 20.5384 3.84375C25.3495 3.84375 29.2817 7.62088 29.5328 12.3897L29.5341 19.0817Z" fill="#66B2FF"/>
</svg>
