<svg width="52" height="52" viewBox="0 0 52 52" fill="none" xmlns="http://www.w3.org/2000/svg">
<path d="M19.9962 20.5095C18.0354 23.051 14.5384 23.0835 12.1485 20.9645C10.5192 19.6645 9.66337 15.7515 9.27337 13.2815C9.08704 12.1007 9.89521 11.039 11.0457 10.9458C13.4962 10.7487 17.472 10.6642 19.0927 11.9707C21.6299 13.8448 21.9029 17.9918 19.9962 20.5095ZM19.9962 20.5095C23.7705 24.0975 26 36.5103 26 36.5103M26 36.5103C26 36.5103 26.9339 28.1058 30.1622 24.9468C31.8825 27.1287 35.3124 27.6378 37.4097 25.8135C38.779 24.7237 39.5244 21.517 39.884 19.3503C40.079 18.1695 39.2709 17.1078 38.1204 17.0212C35.9645 16.8652 32.6929 16.8392 31.3279 17.9377C29.0875 19.554 28.4484 22.7238 30.1622 24.949M26 36.5103C32.3614 36.1767 38.5667 38.6185 44.4167 41.1665M26 36.5103C19.6387 36.1767 13.4334 38.6185 7.58337 41.1665" stroke="#FF7373" stroke-width="3.25" stroke-linecap="round" stroke-linejoin="round"/>
</svg>
